<?xml version="1.0" encoding="UTF-8"?>
<svg id="_圖層_2" data-name=" 圖層 2" xmlns="http://www.w3.org/2000/svg" viewBox="0 0 164.38 37.99">
  <defs>
    <style>
      .cls-1 {
        fill: #fb8500;
      }

      .cls-2 {
        fill: #f29417;
      }

      .cls-3 {
        fill: #fff;
      }
    </style>
  </defs>
  <g id="_圖層_1-2" data-name=" 圖層 1-2">
    <g>
      <path class="cls-1" d="M16.77,8.61c.48-1.73,.95-3.47,1.43-5.2,.19-.69,.48-1.38,.55-2.08C18.84,.18,19.47,0,20.46,0c2.68,.04,5.36,0,8.04,0,1.1,0,2.19-.04,3.28,.03,.28,.02,.7,.34,.77,.6,.67,2.39,1.25,4.81,1.92,7.21,.13,.47,.49,.89,.74,1.33,.12-.02,.24-.05,.36-.07,.47-1.68,.95-3.36,1.41-5.05,.26-.98,.4-2,.77-2.93,.18-.45,.76-1.05,1.16-1.06,4.17-.07,8.34-.03,12.5-.02,.11,0,.23,.09,.46,.19-.41,1.62-.79,3.25-1.22,4.86-1.32,4.98-2.64,9.95-3.98,14.93-1.28,4.77-2.58,9.53-3.87,14.3-.2,.73-.47,1.46-.58,2.2-.14,1.02-.75,1.14-1.61,1.13-2.76-.03-5.53,.02-8.3-.03-.89-.02-1.77,.78-2.65,.04-.44-.37-1.08-.7-1.24-1.18-.73-2.2-1.31-4.45-1.98-6.67-.11-.36-.42-.65-.64-.97-.25,.34-.64,.64-.74,1.02-.65,2.32-1.19,4.66-1.89,6.96-.11,.37-.85,.77-1.31,.78-2.76,.07-5.53,.04-8.29,.04-1.03,0-2.08,.07-3.1-.05-.35-.04-.85-.47-.94-.82-1.26-4.64-2.45-9.31-3.68-13.96-1.27-4.77-2.57-9.54-3.85-14.31C1.36,6.16,.74,3.8,.1,1.43-.19,.38,.16,0,1.28,0,5.02,.05,8.77,.03,12.51,0c.85,0,1.28,.23,1.48,1.14,.49,2.18,1.11,4.33,1.72,6.48,.11,.39,.43,.72,.65,1.08,.14-.03,.28-.07,.41-.1h0Zm18.65,5.8c-.32-.61-.52-.89-.62-1.2-1.04-3.56-2.09-7.13-3.08-10.71-.21-.76-.52-1.22-1.36-1.21-.86,0-1.11,.52-1.29,1.27-.43,1.8-.96,3.58-1.44,5.38-.87,3.26-1.74,6.52-2.61,9.78-.91,3.42-1.83,6.84-2.74,10.27-.63,2.36-1.31,4.72-1.86,7.1-.09,.41,.36,.94,.56,1.42,.44-.3,1.16-.52,1.28-.92,.7-2.3,1.26-4.64,1.88-6.96,.43-1.6,.89-3.18,1.41-5.01,.3,.4,.47,.54,.53,.71,.64,2.14,1.25,4.29,1.87,6.44,.44,1.54,.81,3.11,1.37,4.61,.18,.48,.81,.99,1.31,1.08,.32,.05,.98-.58,1.13-1.02,.54-1.59,.94-3.24,1.38-4.87,1.09-4.03,2.18-8.07,3.26-12.1,.89-3.34,1.77-6.68,2.65-10.03,.52-2,1.05-4,1.53-6.01,.07-.3-.04-.82-.25-.96-.26-.17-.82-.19-1.06,0-.33,.24-.59,.7-.71,1.11-1.04,3.82-2.04,7.65-3.14,11.84ZM11.79,31.76c-.32-.41-.47-.51-.51-.65-1.2-4.44-2.39-8.88-3.57-13.32C6.33,12.6,4.93,7.43,3.58,2.25c-.21-.82-.69-1.03-1.39-.92-.91,.15-.68,.84-.54,1.4,.38,1.56,.8,3.11,1.22,4.65,1.29,4.76,2.61,9.52,3.88,14.29,1.23,4.6,2.4,9.23,3.68,13.82,.12,.43,.81,.97,1.23,.96,.42,0,1.08-.56,1.21-.99,1.41-4.99,2.75-10.01,4.08-15.02,1.56-5.83,3.1-11.66,4.63-17.5,.15-.57,.52-1.34-.42-1.59-.84-.23-1.27,.19-1.5,1.08-.96,3.8-2,7.59-3.01,11.38-1.14,4.28-2.28,8.56-3.43,12.84-.43,1.61-.9,3.22-1.43,5.11Zm27.98,4.88c.17,0,.34,.02,.51,.03,.29-.3,.72-.55,.85-.9,.36-.94,.62-1.93,.88-2.9,.88-3.26,1.75-6.52,2.61-9.78,.88-3.3,1.74-6.6,2.61-9.9,.92-3.51,1.85-7.01,2.76-10.52,.13-.52,.43-1.12-.42-1.32-.81-.19-1.33,.19-1.53,.96-.83,3.1-1.63,6.2-2.45,9.29-.88,3.34-1.75,6.69-2.64,10.03-1.22,4.56-2.47,9.11-3.65,13.68-.1,.38,.29,.89,.45,1.33h.02ZM47.05,1.99c-.2-.18-.54-.68-.72-.63-.49,.14-1.17,.43-1.3,.82-.57,1.72-.95,3.5-1.42,5.25-1.09,4.03-2.19,8.06-3.28,12.09-1.14,4.24-2.26,8.48-3.38,12.72-.28,1.06-.58,2.12-.75,3.2-.05,.32,.31,1,.46,.99,.45-.02,.93-.23,1.31-.5,.19-.13,.19-.54,.26-.82,.46-1.71,.92-3.42,1.38-5.13,1.08-3.99,2.16-7.98,3.23-11.97,.93-3.46,1.84-6.93,2.75-10.4,.47-1.79,.94-3.59,1.46-5.61h0ZM17.12,35.76c.13,.18,.26,.58,.49,.65,.32,.09,.84,.07,1.04-.13,.33-.34,.55-.85,.68-1.32,.32-1.09,.55-2.21,.85-3.31,1.28-4.77,2.58-9.53,3.85-14.3,1.29-4.85,2.57-9.71,3.81-14.58,.11-.42,0-1.21-.27-1.34-.68-.34-1.3-.09-1.53,.78-.4,1.55-.83,3.1-1.24,4.65-1.1,4.11-2.21,8.23-3.31,12.34-.9,3.34-1.81,6.68-2.7,10.02-.56,2.12-1.09,4.25-1.67,6.54ZM24.93,2.02c-.21-.21-.52-.7-.7-.66-.47,.11-1.12,.36-1.28,.73-.4,.92-.57,1.93-.83,2.91-.88,3.35-1.76,6.69-2.65,10.04-.87,3.26-1.77,6.51-2.64,9.77-.89,3.34-1.76,6.69-2.66,10.03-.16,.61-.51,1.3,.34,1.61,.79,.28,1.27-.15,1.48-.95,.61-2.33,1.25-4.65,1.87-6.97,.91-3.38,1.82-6.76,2.73-10.15,.89-3.34,1.78-6.68,2.67-10.02,.54-2.04,1.08-4.08,1.67-6.34Zm18.99-.18c-.19-.13-.49-.52-.73-.48-.43,.07-1.06,.31-1.17,.62-.55,1.59-.96,3.23-1.4,4.86-.89,3.3-1.78,6.6-2.66,9.9-.89,3.34-1.78,6.69-2.67,10.03-.76,2.86-1.52,5.71-2.22,8.58-.08,.31,.21,1.03,.33,1.03,.45,0,.98-.11,1.31-.39,.28-.24,.38-.74,.48-1.14,.48-1.84,.92-3.68,1.41-5.52,.89-3.3,1.81-6.59,2.7-9.89,1.14-4.24,2.27-8.48,3.39-12.72,.41-1.55,.79-3.11,1.24-4.88h-.01ZM11.7,28.14c.13-.01,.26-.02,.38-.03,.63-1.19,1.01-2.35,.55-3.8-.79-2.45-1.35-4.97-2-7.46-1.06-4.04-2.1-8.09-3.17-12.12-.26-.98-.5-1.98-.95-2.87-.16-.31-.9-.38-1.39-.43-.1,0-.42,.6-.36,.86,.73,2.91,1.5,5.8,2.28,8.69,1.11,4.16,2.22,8.31,3.34,12.46,.42,1.57,.88,3.13,1.32,4.7Zm1.77-5.94c.24-.05,.47-.09,.71-.14,0-1.18,.19-2.4-.04-3.53-.51-2.51-1.23-4.99-1.88-7.47-.77-2.94-1.51-5.88-2.38-8.78-.12-.42-.9-.64-1.37-.95-.17,.44-.55,.93-.47,1.32,.36,1.77,.84,3.52,1.3,5.27,1.12,4.28,2.25,8.55,3.4,12.82,.14,.51,.47,.98,.72,1.46h0Zm1.32-5.84c1.44-1.2,1.33-2.6,.99-3.93-.86-3.39-1.87-6.74-2.75-10.13-.23-.87-.72-1.14-1.47-.94-.96,.25-.55,.97-.4,1.55,.71,2.69,1.43,5.38,2.16,8.06,.47,1.73,.94,3.46,1.47,5.39Z"/>
      <path class="cls-1" d="M127.84,15.99c.05-.48,.14-.96,.15-1.44,.02-1.74,.04-3.47,0-5.21-.02-.89,.33-1.18,1.2-1.17,2.08,.04,4.17,.06,6.25,0,1.04-.03,1.33,.4,1.31,1.35-.04,1.99,0,3.98,0,5.97,0,.45,.05,.9,.35,1.49,.29-.36,.65-.68,.85-1.08,2.9-5.7,8.42-8.67,14.84-7.76,3.89,.55,6.94,2.63,9.21,5.8,.17,.23,0,.96-.27,1.2-.9,.82-1.88,1.55-2.83,2.3-.17,.14-.34,.27-.48,.44-.14,.18-.24,.4-.33,.62,0,.01,0,.03-.02,.04-.04,.1-.13,.24-.12,.35,.02,.14,.17,.11,.29,.11h3.12c3.43,.04,2.96-.45,3.02,3.08,.07,4.19-1.43,7.65-4.65,10.39-6.89,5.86-17.67,3.66-21.69-4.44-.23-.46-.56-.87-.85-1.3-.12,.03-.23,.06-.35,.09-.03,.43-.1,.86-.1,1.29,0,1.99-.03,3.98,0,5.97,0,.87-.33,1.22-1.21,1.19-1.57-.04-3.15-.04-4.72,0-.86,.02-1.41-.27-1.87-1.02-1.47-2.38-3-4.71-4.52-7.06-.27-.41-.56-.81-.84-1.21l-.38,.03c-.09,.48-.25,.97-.26,1.45-.03,2.2-.04,4.4,0,6.61,.02,.88-.32,1.21-1.19,1.2-2.17-.03-4.34-.03-6.51,0-.89,0-1.18-.37-1.18-1.23,.02-8.22,.02-16.43,0-24.65,0-.97,.41-1.25,1.31-1.23,1.87,.04,3.75,.05,5.62,0,.87-.02,1.43,.27,1.88,1,1.21,1.94,2.46,3.85,3.7,5.77,.27,.41,.6,.78,.9,1.16,.13-.03,.25-.07,.38-.1h0Zm27.2,10.21c-1.95,2.28-5.31,2.64-7.76,1.08-2.68-1.72-3.82-5.22-2.62-7.88,1.96-4.34,7.72-5.07,10.4-2.03,.6,.68,1.16,.71,1.85,.11,.9-.77,1.84-1.5,2.8-2.2,.94-.68,1.03-1.31,.16-2.15-3.37-3.23-7.23-4.71-11.96-3.69-5.65,1.22-9.37,5.7-10.06,10.82-.93,6.97,4.29,13.35,11.14,14.23,7.31,.94,14.97-4.75,14.24-13.16-.07-.83-.31-1.24-1.2-1.23-3.83,.02-7.66,.02-11.49,0-.9,0-1.21,.41-1.2,1.24,0,1.19,.03,2.37,0,3.56-.03,1,.43,1.35,1.39,1.32,1.35-.04,2.7-.01,4.32-.01h-.01Zm-33.43-4.9c.11-.02,.21-.04,.32-.06,.2,.27,.41,.52,.59,.8,1.97,3.06,3.92,6.13,5.91,9.18,2.33,3.58,1.3,2.88,5.67,2.96h.13c.95,.04,1.4-.37,1.4-1.35,0-7.41-.02-14.81,0-22.22,0-.9-.44-1.19-1.26-1.18-1.19,.01-2.38,.04-3.57-.01-1.19-.06-1.69,.4-1.67,1.62,.05,2.71,.02,5.42,0,8.13,0,.42-.07,.85-.13,1.62-.47-.67-.73-1-.95-1.34-1.95-3.02-3.87-6.07-5.87-9.05-.3-.45-.96-.87-1.49-.92-1.39-.13-2.8-.03-4.21-.05-.81-.01-1.15,.36-1.15,1.15v22.35c0,.91,.43,1.29,1.34,1.27,1.19-.03,2.38-.04,3.57,0,.99,.03,1.38-.42,1.37-1.37-.02-1.86,0-3.72,0-5.59v-5.94Zm26.39,4.62c0-.57,0-.95,.02-1.42,.03-1.4,.06-2.79,0-4.19-.05-1.02,.39-1.36,1.35-1.33,1.15,.04,2.3,.05,3.44-.02,.44-.03,.86-.07,1.47-.07-.34-.53-.69-1.27-1.07-1.52-2.5-1.66-5.94-.46-7.4,2.36-1.08,2.08,.2,5.57,2.19,6.19h0Z"/>
      <path class="cls-1" d="M78.07,20.09c0-.61-.02-1.25-.01-1.86,.02-2.88,.04-5.76,0-8.64-.02-.99,.24-1.45,1.35-1.43,3.49,.06,6.98-.08,10.47,.05,5.76,.22,10.15,2.73,12.72,8.04,.18,.37,.55,.66,.82,.99,.11-.04,.22-.08,.33-.11v-1.19c0-2.12,0-4.23-.02-6.35-.01-.99,.33-1.45,1.42-1.42,2.04,.07,4.09,.06,6.13,0,.98-.03,1.23,.36,1.22,1.27-.03,8.22-.02,16.43,0,24.65,0,.86-.26,1.22-1.16,1.2-2.08-.04-4.17-.05-6.25,0-1.01,.03-1.37-.39-1.35-1.35,.03-1.99,.02-3.98,.03-5.97v-1.35c-.11-.05-.22-.1-.33-.16-.29,.35-.65,.66-.85,1.05-2.48,4.9-6.53,7.47-11.98,7.7-3.69,.16-7.4,0-11.1,.07-1.15,.02-1.46-.4-1.44-1.48,.06-2.79,.03-5.59,.01-8.38,0-.55-.13-1.1-.37-1.69-1.26,4.82-3.71,8.67-8.33,10.79-3.2,1.47-6.53,1.66-9.96,.69-5.94-1.68-10.44-7.97-9.92-14.22,.58-6.95,5.42-11.89,11.77-12.83,6.79-1,14.16,2.22,16.82,11.93h-.02Zm1.04,1.61v10.93c0,.88,.24,1.56,1.25,1.54,4.03-.09,8.1,.08,12.09-.41,5.96-.74,10.03-5.73,10.18-11.56,.18-6.91-5.23-12.45-11.79-12.68-3.36-.12-6.72-.07-10.08-.07-1.49,0-1.64,.17-1.64,1.72v10.53Zm-28.39,.12c-.22,6.77,5.44,12.77,12.72,12.81,7.08,.04,12.89-5.73,12.85-12.73-.04-7.13-5.49-12.74-12.78-12.79-7.04-.05-12.92,5.55-12.8,12.71h0Zm54.12-.02v10.66c0,1.58,.15,1.72,1.76,1.73,.98,0,1.95,0,2.93,0,1.45-.02,1.73-.29,1.75-1.7,.02-1.82,0-3.64,0-5.46,0-5.33-.02-10.66,.02-15.99,0-1.21-.45-1.7-1.65-1.63-1.02,.06-2.04,0-3.06,.01-1.66,.01-1.75,.1-1.75,1.71v10.66h0Z"/>
      <path class="cls-3" d="M35.42,14.4c1.11-4.19,2.1-8.02,3.14-11.84,.11-.41,.37-.87,.71-1.11,.24-.18,.8-.16,1.06,0,.21,.14,.32,.66,.25,.96-.47,2.01-1,4.01-1.53,6.01-.88,3.34-1.76,6.69-2.65,10.03-1.08,4.04-2.17,8.07-3.26,12.1-.44,1.63-.84,3.27-1.38,4.87-.15,.44-.8,1.07-1.13,1.02-.5-.08-1.13-.6-1.31-1.08-.56-1.5-.92-3.07-1.37-4.61-.62-2.15-1.24-4.3-1.87-6.44-.05-.18-.23-.32-.53-.71-.52,1.83-.98,3.42-1.41,5.01-.62,2.32-1.18,4.66-1.88,6.96-.12,.4-.84,.62-1.28,.92-.2-.48-.66-1.01-.56-1.42,.55-2.38,1.23-4.74,1.86-7.1,.92-3.42,1.83-6.84,2.74-10.27,.87-3.26,1.74-6.52,2.61-9.78,.48-1.79,1.01-3.57,1.44-5.38,.18-.75,.43-1.26,1.29-1.27,.84,0,1.15,.45,1.36,1.21,.99,3.58,2.04,7.14,3.08,10.71,.09,.31,.3,.59,.62,1.2Zm-1.52,5.66c.1-.6,.41-1.26,.26-1.8-.92-3.46-1.93-6.9-2.93-10.34-.19-.64-.44-1.26-.73-2.05-.83,1.44,.52,7.16,3.39,14.2h.01Zm-1.99,5.68c.17-.02,.34-.04,.51-.05,.62-2.48-.85-4.65-1.42-6.95-.59-2.37-1.32-4.7-1.99-7.06-.19,.03-.37,.05-.56,.08,.06,.86,.05,1.74,.2,2.58,.17,.95,.47,1.88,.74,2.81,.83,2.86,1.68,5.72,2.52,8.59Zm-4.76-8.19c-.17,5.06,2.22,9.5,3.13,14.31,.25-.06,.5-.12,.74-.18-.36-4.93-2.58-9.41-3.87-14.13Z"/>
      <path class="cls-3" d="M11.79,31.76c.53-1.9,1-3.5,1.43-5.11,1.15-4.28,2.29-8.56,3.43-12.84,1.01-3.79,2.05-7.57,3.01-11.38,.22-.89,.66-1.3,1.5-1.08,.93,.25,.56,1.02,.42,1.59-1.53,5.84-3.07,11.67-4.63,17.5-1.34,5.01-2.67,10.03-4.08,15.02-.12,.43-.79,.98-1.21,.99-.42,0-1.11-.54-1.23-.96-1.28-4.59-2.44-9.21-3.68-13.82-1.28-4.77-2.59-9.52-3.88-14.29-.42-1.55-.84-3.1-1.22-4.65-.14-.56-.37-1.25,.54-1.4,.7-.11,1.18,.1,1.39,.92,1.35,5.19,2.74,10.36,4.12,15.54,1.19,4.44,2.37,8.88,3.57,13.32,.04,.14,.19,.25,.51,.65h.01Z"/>
      <path class="cls-3" d="M39.77,36.64c-.16-.45-.54-.95-.45-1.33,1.17-4.57,2.43-9.12,3.65-13.68,.89-3.34,1.76-6.69,2.64-10.03,.81-3.1,1.62-6.2,2.45-9.29,.2-.76,.72-1.15,1.53-.96,.84,.2,.55,.81,.42,1.32-.92,3.51-1.84,7.02-2.76,10.52-.87,3.3-1.74,6.6-2.61,9.9-.86,3.26-1.73,6.52-2.61,9.78-.26,.98-.52,1.96-.88,2.9-.14,.36-.56,.61-.85,.9-.17,0-.34-.02-.51-.03h-.02Z"/>
      <path class="cls-3" d="M47.05,1.99c-.53,2.02-.99,3.81-1.46,5.61-.91,3.47-1.82,6.93-2.75,10.4-1.07,3.99-2.15,7.98-3.23,11.97-.46,1.71-.92,3.42-1.38,5.13-.08,.28-.07,.69-.26,.82-.38,.27-.86,.48-1.31,.5-.15,0-.51-.67-.46-.99,.17-1.08,.47-2.14,.75-3.2,1.12-4.24,2.24-8.48,3.38-12.72,1.08-4.03,2.19-8.06,3.28-12.09,.47-1.75,.86-3.53,1.42-5.25,.13-.39,.81-.68,1.3-.82,.18-.05,.52,.45,.72,.63h0Z"/>
      <path class="cls-3" d="M17.12,35.76c.59-2.29,1.11-4.42,1.67-6.54,.89-3.34,1.8-6.68,2.7-10.02,1.11-4.11,2.21-8.23,3.31-12.34,.42-1.55,.85-3.09,1.24-4.65,.22-.87,.84-1.12,1.53-.78,.26,.13,.37,.92,.27,1.34-1.24,4.87-2.52,9.72-3.81,14.58-1.27,4.77-2.57,9.53-3.85,14.3-.3,1.1-.52,2.22-.85,3.31-.14,.47-.35,.98-.68,1.32-.2,.2-.72,.23-1.04,.13-.23-.07-.36-.47-.49-.65Z"/>
      <path class="cls-3" d="M24.93,2.02c-.59,2.26-1.13,4.3-1.67,6.34-.89,3.34-1.78,6.68-2.67,10.02-.91,3.38-1.82,6.76-2.73,10.15-.63,2.32-1.26,4.64-1.87,6.97-.21,.8-.69,1.23-1.48,.95-.86-.3-.51-.99-.34-1.61,.89-3.34,1.76-6.69,2.66-10.03,.87-3.26,1.77-6.51,2.64-9.77,.89-3.34,1.77-6.69,2.65-10.04,.26-.98,.43-1.99,.83-2.91,.16-.37,.81-.62,1.28-.73,.18-.04,.5,.45,.7,.66Z"/>
      <path class="cls-3" d="M43.92,1.84c-.45,1.77-.83,3.33-1.24,4.88-1.12,4.24-2.25,8.48-3.39,12.72-.89,3.3-1.82,6.59-2.7,9.89-.49,1.83-.93,3.68-1.41,5.52-.11,.4-.2,.91-.48,1.14-.33,.27-.86,.39-1.31,.39-.12,0-.41-.71-.33-1.03,.7-2.87,1.47-5.72,2.22-8.58,.88-3.34,1.78-6.69,2.67-10.03,.88-3.3,1.77-6.6,2.66-9.9,.44-1.63,.85-3.27,1.4-4.86,.11-.32,.74-.55,1.17-.62,.23-.04,.54,.34,.73,.48h.01Z"/>
      <path class="cls-3" d="M11.7,28.14c-.44-1.57-.9-3.13-1.32-4.7-1.12-4.15-2.23-8.31-3.34-12.46-.77-2.89-1.55-5.79-2.28-8.69-.06-.26,.26-.87,.36-.86,.49,.05,1.23,.12,1.39,.43,.45,.89,.69,1.89,.95,2.87,1.07,4.04,2.11,8.08,3.17,12.12,.65,2.49,1.21,5.01,2,7.46,.47,1.46,.09,2.61-.55,3.8-.13,.01-.26,.02-.38,.03Z"/>
      <path class="cls-3" d="M13.47,22.2c-.24-.49-.58-.95-.72-1.46-1.16-4.27-2.28-8.54-3.4-12.82-.46-1.75-.94-3.5-1.3-5.27-.08-.39,.3-.88,.47-1.32,.47,.31,1.24,.54,1.37,.95,.87,2.91,1.61,5.85,2.38,8.78,.65,2.48,1.36,4.96,1.88,7.47,.23,1.13,.04,2.35,.04,3.53-.24,.05-.47,.09-.71,.14h-.01Z"/>
      <path class="cls-3" d="M14.79,16.35c-.53-1.93-1-3.66-1.47-5.39-.72-2.69-1.44-5.37-2.16-8.06-.16-.59-.57-1.3,.4-1.55,.75-.2,1.25,.07,1.47,.94,.88,3.39,1.88,6.74,2.75,10.13,.34,1.33,.44,2.73-.99,3.93Z"/>
      <path class="cls-3" d="M155.03,26.2c-1.61,0-2.97-.03-4.32,.01-.96,.03-1.42-.32-1.39-1.32,.04-1.18,.02-2.37,0-3.56,0-.82,.31-1.24,1.2-1.24,3.83,.02,7.66,.02,11.49,0,.89,0,1.13,.4,1.2,1.23,.73,8.41-6.93,14.1-14.24,13.16-6.84-.88-12.07-7.26-11.14-14.23,.69-5.12,4.41-9.6,10.06-10.82,4.73-1.02,8.58,.46,11.96,3.69,.87,.84,.78,1.47-.16,2.15-.96,.7-1.9,1.43-2.8,2.2-.69,.59-1.25,.56-1.85-.11-2.67-3.03-8.44-2.31-10.4,2.03-1.2,2.66-.06,6.16,2.62,7.88,2.45,1.56,5.81,1.2,7.76-1.08h.01Z"/>
      <path class="cls-3" d="M121.6,21.31v5.92c0,1.86-.02,3.73,0,5.59,.01,.96-.38,1.4-1.37,1.37-1.19-.04-2.38-.03-3.57,0-.91,.02-1.34-.35-1.34-1.27V10.57c0-.79,.34-1.16,1.15-1.15,1.4,.02,2.81-.08,4.21,.05,.53,.05,1.19,.47,1.49,.92,2,2.99,3.92,6.03,5.87,9.05,.22,.35,.48,.68,.95,1.34,.07-.78,.13-1.2,.13-1.62,0-2.71,.04-5.42,0-8.13-.02-1.22,.47-1.68,1.67-1.62,1.19,.06,2.38,.03,3.57,.01,.82,0,1.26,.28,1.26,1.18-.02,7.41,0,14.81,0,22.22,0,.98-.45,1.39-1.4,1.35h-.13c-4.37-.08-3.33,.62-5.67-2.96-1.99-3.05-3.94-6.12-5.91-9.18-.18-.28-.39-.53-.59-.8-.11,.02-.21,.04-.32,.06v.02Z"/>
      <path class="cls-3" d="M79.11,21.7V11.15c0-1.55,.15-1.72,1.64-1.72,3.36,0,6.73-.05,10.08,.07,6.56,.23,11.96,5.78,11.79,12.68-.15,5.83-4.22,10.82-10.18,11.56-3.98,.5-8.05,.32-12.09,.41-1.01,.02-1.25-.66-1.25-1.54,.01-3.64,0-7.29,0-10.93v.02Zm6.59,.1h0v5.33c0,.64,.16,1.11,.92,1.05,1.64-.12,3.32-.09,4.92-.43,2.55-.54,4.32-2.64,4.56-5.01,.3-3.03-.76-5.53-3.34-6.48-1.76-.64-3.8-.51-5.72-.72-.98-.11-1.38,.29-1.35,1.3,.06,1.65,.02,3.3,.02,4.95h0Z"/>
      <path class="cls-3" d="M50.73,21.82c-.13-7.16,5.75-12.76,12.8-12.71,7.29,.05,12.73,5.66,12.78,12.79,.04,7-5.77,12.77-12.85,12.73-7.28-.04-12.95-6.04-12.72-12.81h0Zm12.82-6.23c-3.74-.28-6.48,3.14-6.55,6.22-.08,3.35,3,6.41,6.43,6.43,3.52,.03,6.22-2.78,6.35-6.38,.13-3.61-3.17-6.58-6.23-6.27Z"/>
      <path class="cls-3" d="M104.85,21.8V11.14c0-1.61,.1-1.69,1.75-1.71,1.02,0,2.04,.05,3.06-.01,1.21-.07,1.66,.42,1.65,1.63-.04,5.33-.02,10.66-.02,15.99,0,1.82,.01,3.64,0,5.46-.02,1.41-.3,1.68-1.75,1.7-.98,0-1.95,0-2.93,0-1.62-.02-1.76-.15-1.76-1.73v-10.66h0Z"/>
      <path class="cls-2" d="M33.91,20.07c-2.88-7.04-4.22-12.76-3.39-14.2,.28,.79,.54,1.41,.73,2.05,1,3.44,2.01,6.88,2.93,10.34,.14,.54-.16,1.2-.26,1.8h-.01Z"/>
      <path class="cls-2" d="M31.91,25.76c-.84-2.86-1.69-5.72-2.52-8.59-.27-.93-.57-1.86-.74-2.81-.15-.85-.14-1.72-.2-2.58,.19-.03,.37-.05,.56-.08,.67,2.35,1.4,4.68,1.99,7.06,.57,2.29,2.04,4.46,1.42,6.95-.17,.02-.34,.04-.51,.05Z"/>
      <path class="cls-2" d="M27.16,17.57c1.29,4.71,3.51,9.2,3.87,14.13-.25,.06-.5,.12-.74,.18-.91-4.8-3.3-9.25-3.13-14.31Z"/>
      <path class="cls-1" d="M85.69,21.81c0-1.65,.04-3.3-.02-4.95-.04-1.01,.37-1.41,1.35-1.3,1.92,.21,3.96,.08,5.72,.72,2.58,.94,3.64,3.44,3.34,6.48-.23,2.37-2.01,4.47-4.56,5.01-1.6,.34-3.28,.31-4.92,.43-.75,.05-.92-.42-.92-1.05,.01-1.78,0-3.56,0-5.33h0Zm1.04-.24h-.01c0,.68-.01,1.35,0,2.03,.07,3.41-.67,3.33,3.41,3.22,2.29-.06,4-1.46,4.75-3.74,.59-1.8-.16-4-1.79-5.33-1.67-1.36-3.63-1.28-5.58-1.08-.29,.03-.71,.69-.74,1.09-.1,1.26-.04,2.53-.04,3.8h0Z"/>
      <path class="cls-1" d="M63.56,15.59c3.06-.31,6.36,2.66,6.23,6.27-.13,3.6-2.83,6.41-6.35,6.38-3.43-.02-6.51-3.09-6.43-6.43,.07-3.08,2.81-6.5,6.55-6.22Zm5.12,6.28c0-2.79-2.39-5.23-5.15-5.24-2.83,0-5.2,2.33-5.22,5.15-.02,2.92,2.34,5.32,5.2,5.29,2.86-.03,5.17-2.35,5.18-5.2h0Z"/>
    </g>
  </g>
</svg>